<?xml version="1.0" encoding="UTF-8"?>
<svg id="Camada_2" xmlns="http://www.w3.org/2000/svg" viewBox="0 0 367.88 284.52">
  <defs>
    <style>
      .cls-1 {
        fill: none;
        stroke: #ffb40a;
        stroke-miterlimit: 10;
        stroke-width: 12px;
      }
    </style>
  </defs>
  <g id="Layer_1">
    <path class="cls-1" d="M343.4,103.82c-5.57-16.88-2.26-29.12-11.84-41.25-11.12-10.6-24.08-8.5-38.16-16.78-13.46-9.27-16.61-21.51-30.01-26.56-15.11-4.58-24.44,3.03-41.63.87-18.84-3.64-21.43-13.5-37.77-14.1h-.13c-16.34.6-18.93,10.46-37.77,14.1-17.2,2.16-26.52-5.45-41.64-.87-13.39,5.05-16.54,17.29-30,26.56-14.08,8.28-27.03,6.17-38.15,16.78-9.6,12.12-6.29,24.36-11.86,41.25-6.69,16.36-18.43,22.04-18.43,38.36s11.74,22.15,18.43,38.52c5.57,16.88,2.26,29.12,11.86,41.25,11.12,10.6,24.07,8.5,38.15,16.78,13.46,9.27,16.61,21.52,30,26.56,15.12,4.58,24.44-3.03,41.64-.87,18.84,3.64,21.43,13.5,37.77,14.1h.13c16.34-.6,18.93-10.46,37.77-14.1,17.19-2.16,26.52,5.45,41.63.87,13.39-5.05,16.54-17.29,30.01-26.56,14.08-8.27,27.04-6.17,38.16-16.78,9.58-12.12,6.28-24.36,11.84-41.25,6.69-16.36,18.48-22.38,18.48-38.52s-11.79-22-18.48-38.36"/>
  </g>
</svg>